<svg width="16" height="18" viewBox="0 0 16 18" fill="none" xmlns="http://www.w3.org/2000/svg">
<g id="Group">
<g id="Group_2">
<g id="Group_3">
<path id="Vector" d="M15.4872 17.0372H9.37397C9.09075 17.0372 8.86115 16.8066 8.86115 16.522V1.47802C8.86115 1.31047 8.94224 1.15337 9.07858 1.05686C9.21489 0.96034 9.38945 0.936538 9.54648 0.992832L15.6597 3.18675C15.8638 3.26001 16 3.45421 16 3.67194V16.522C16 16.8066 15.7704 17.0372 15.4872 17.0372ZM9.88679 16.0068H14.9744V4.03499L9.88679 2.20916V16.0068Z" fill="#0C111D"/>
<path id="Vector_2" d="M9.37396 1.47809V16.5221H15.4872V3.67201L9.37396 1.47809ZM11.7703 14.9564H10.8814V13.5707H11.7703V14.9564ZM11.7703 11.7879H10.8814V10.4022H11.7703V11.7879ZM11.7703 8.65374H10.8814V7.26804H11.7703V8.65374ZM11.7703 5.48522H10.8814V4.09952H11.7703V5.48522ZM13.9635 14.9564H13.0746V13.5707H13.9635V14.9564ZM13.9635 11.7879H13.0746V10.4022H13.9635V11.7879ZM13.9635 8.65374H13.0746V7.26804H13.9635V8.65374Z" fill="#0C111D"/>
</g>
<g id="Group_4">
<path id="Vector_3" d="M6.62605 17.0372H0.512821C0.229607 17.0372 0 16.8065 0 16.522V3.67192C0 3.4542 0.136205 3.26 0.340308 3.18673L6.45354 0.992817C6.61056 0.936454 6.78509 0.960325 6.92144 1.05684C7.05778 1.15336 7.13887 1.31042 7.13887 1.478V16.522C7.13887 16.8065 6.90927 17.0372 6.62605 17.0372ZM1.02564 16.0068H6.11323V2.20915L1.02564 4.03497V16.0068Z" fill="#0C111D"/>
<path id="Vector_4" d="M9.37397 16.0068H6.62604V17.0372H9.37397V16.0068Z" fill="#0C111D"/>
<path id="Vector_5" d="M9.37397 3.95166H6.62604V4.98207H9.37397V3.95166Z" fill="#0C111D"/>
<g id="Group_5">
<path id="Vector_6" d="M5.18702 4.09926H4.16138V5.48496H5.18702V4.09926Z" fill="#0C111D"/>
<path id="Vector_7" d="M5.18702 7.26778H4.16138V8.65347H5.18702V7.26778Z" fill="#0C111D"/>
<path id="Vector_8" d="M5.18702 10.4019H4.16138V11.7876H5.18702V10.4019Z" fill="#0C111D"/>
<path id="Vector_9" d="M2.99375 7.26778H1.96811V8.65347H2.99375V7.26778Z" fill="#0C111D"/>
<path id="Vector_10" d="M2.99375 10.4019H1.96811V11.7876H2.99375V10.4019Z" fill="#0C111D"/>
<path id="Vector_11" d="M5.18702 13.5704H4.16138V14.9561H5.18702V13.5704Z" fill="#0C111D"/>
<path id="Vector_12" d="M2.99375 13.5704H1.96811V14.9561H2.99375V13.5704Z" fill="#0C111D"/>
</g>
</g>
</g>
</g>
</svg>
